<mxfile host="65bd71144e">
    <diagram id="S6xZC2rIG92m48Q8W9Y6" name="Authentication">
        <mxGraphModel dx="1066" dy="607" grid="1" gridSize="10" guides="1" tooltips="1" connect="1" arrows="1" fold="1" page="1" pageScale="1" pageWidth="1100" pageHeight="850" math="0" shadow="0">
            <root>
                <mxCell id="0"/>
                <mxCell id="1" parent="0"/>
                <mxCell id="gTb1MGsv5mxQ5VIkcxM5-20" value="Your vanity URL" style="html=1;shadow=0;dashed=0;shape=mxgraph.bootstrap.rrect;rSize=5;strokeColor=none;html=1;whiteSpace=wrap;fillColor=none;fontColor=#212529;align=left;spacingLeft=0;fontSize=14;" parent="1" vertex="1">
                    <mxGeometry x="140" y="200" width="200" height="30" as="geometry"/>
                </mxCell>
                <mxCell id="gTb1MGsv5mxQ5VIkcxM5-21" value="" style="html=1;shadow=0;dashed=0;shape=mxgraph.bootstrap.rrect;rSize=5;strokeColor=#CED4DA;html=1;whiteSpace=wrap;fillColor=#FFFFFF;fontColor=#7D868C;align=left;spacing=15;spacingLeft=40;fontSize=14;" parent="1" vertex="1">
                    <mxGeometry x="140" y="110" width="470" height="40" as="geometry"/>
                </mxCell>
                <mxCell id="gTb1MGsv5mxQ5VIkcxM5-22" value="Email" style="html=1;shadow=0;dashed=0;shape=mxgraph.bootstrap.leftButton;strokeColor=inherit;gradientColor=inherit;fontColor=inherit;fillColor=#E9ECEF;rSize=5;perimeter=none;whiteSpace=wrap;resizeHeight=1;fontSize=14;" parent="gTb1MGsv5mxQ5VIkcxM5-21" vertex="1">
                    <mxGeometry width="111.625" height="40" as="geometry"/>
                </mxCell>
                <mxCell id="gTb1MGsv5mxQ5VIkcxM5-28" value="" style="html=1;shadow=0;dashed=0;shape=mxgraph.bootstrap.rrect;rSize=5;strokeColor=#CED4DA;html=1;whiteSpace=wrap;fillColor=#FFFFFF;fontColor=#7D868C;align=left;spacing=15;spacingLeft=40;fontSize=14;" parent="1" vertex="1">
                    <mxGeometry x="140" y="190" width="470" height="40" as="geometry"/>
                </mxCell>
                <mxCell id="gTb1MGsv5mxQ5VIkcxM5-29" value="Password" style="html=1;shadow=0;dashed=0;shape=mxgraph.bootstrap.leftButton;strokeColor=inherit;gradientColor=inherit;fontColor=inherit;fillColor=#E9ECEF;rSize=5;perimeter=none;whiteSpace=wrap;resizeHeight=1;fontSize=14;" parent="gTb1MGsv5mxQ5VIkcxM5-28" vertex="1">
                    <mxGeometry width="111.625" height="40" as="geometry"/>
                </mxCell>
                <mxCell id="gTb1MGsv5mxQ5VIkcxM5-30" value="Submit" style="rounded=1;fillColor=#0057D8;strokeColor=none;html=1;fontColor=#ffffff;align=center;verticalAlign=middle;fontStyle=0;fontSize=12;sketch=0;" parent="1" vertex="1">
                    <mxGeometry x="140" y="270" width="470" height="50" as="geometry"/>
                </mxCell>
                <mxCell id="gTb1MGsv5mxQ5VIkcxM5-32" value="Signup" style="labelPosition=center;verticalLabelPosition=middle;align=center;html=1;shape=mxgraph.basic.button;dx=10;whiteSpace=wrap;" parent="1" vertex="1">
                    <mxGeometry x="140" y="360" width="220" height="75" as="geometry"/>
                </mxCell>
                <mxCell id="gTb1MGsv5mxQ5VIkcxM5-33" value="&lt;font color=&quot;#3333ff&quot;&gt;Login&lt;/font&gt;" style="labelPosition=center;verticalLabelPosition=middle;align=center;html=1;shape=mxgraph.basic.shaded_button;dx=10;fillColor=#E6E6E6;strokeColor=none;whiteSpace=wrap;" parent="1" vertex="1">
                    <mxGeometry x="400" y="360" width="210" height="70" as="geometry"/>
                </mxCell>
                <mxCell id="gTb1MGsv5mxQ5VIkcxM5-35" value="&lt;h1&gt;Please Signup&lt;/h1&gt;" style="text;html=1;strokeColor=none;fillColor=none;spacing=5;spacingTop=-20;whiteSpace=wrap;overflow=hidden;rounded=0;fontColor=#3333FF;" parent="1" vertex="1">
                    <mxGeometry x="140" y="40" width="190" height="50" as="geometry"/>
                </mxCell>
            </root>
        </mxGraphModel>
    </diagram>
    <diagram id="UNtwZ4SG6o42MQ7O-dL8" name="backend-architecture">
        <mxGraphModel dx="1066" dy="607" grid="1" gridSize="10" guides="1" tooltips="1" connect="1" arrows="1" fold="1" page="1" pageScale="1" pageWidth="1100" pageHeight="850" math="0" shadow="0">
            <root>
                <mxCell id="0"/>
                <mxCell id="1" parent="0"/>
                <mxCell id="WULt9bE_Oc0r5N1BENyg-10" value="" style="rounded=1;whiteSpace=wrap;html=1;fontColor=#ffffff;fillColor=#60a917;strokeColor=#2D7600;" parent="1" vertex="1">
                    <mxGeometry x="60" y="170" width="70" height="60" as="geometry"/>
                </mxCell>
                <mxCell id="WULt9bE_Oc0r5N1BENyg-11" value="&lt;font color=&quot;#ffffff&quot;&gt;Index.js&lt;/font&gt;" style="text;html=1;strokeColor=none;fillColor=none;align=center;verticalAlign=middle;whiteSpace=wrap;rounded=0;fontColor=#3333FF;" parent="1" vertex="1">
                    <mxGeometry x="60" y="185" width="60" height="30" as="geometry"/>
                </mxCell>
                <mxCell id="WULt9bE_Oc0r5N1BENyg-12" value="" style="rounded=1;whiteSpace=wrap;html=1;fontColor=#ffffff;fillColor=#647687;strokeColor=#314354;" parent="1" vertex="1">
                    <mxGeometry x="160" y="170" width="70" height="60" as="geometry"/>
                </mxCell>
                <mxCell id="WULt9bE_Oc0r5N1BENyg-13" value="&lt;font color=&quot;#ffffff&quot;&gt;App.js&lt;/font&gt;" style="text;html=1;strokeColor=none;fillColor=none;align=center;verticalAlign=middle;whiteSpace=wrap;rounded=0;fontColor=#3333FF;" parent="1" vertex="1">
                    <mxGeometry x="165" y="185" width="60" height="30" as="geometry"/>
                </mxCell>
                <mxCell id="WULt9bE_Oc0r5N1BENyg-17" value="" style="swimlane;startSize=0;fontColor=#ffffff;fillColor=#1ba1e2;strokeColor=#006EAF;" parent="1" vertex="1">
                    <mxGeometry x="280" y="100" width="150" height="230" as="geometry"/>
                </mxCell>
                <mxCell id="WULt9bE_Oc0r5N1BENyg-19" value="" style="rounded=1;whiteSpace=wrap;html=1;fontColor=#ffffff;fillColor=#6a00ff;strokeColor=#3700CC;" parent="WULt9bE_Oc0r5N1BENyg-17" vertex="1">
                    <mxGeometry x="30" y="60" width="90" height="60" as="geometry"/>
                </mxCell>
                <mxCell id="WULt9bE_Oc0r5N1BENyg-22" value="" style="rounded=1;whiteSpace=wrap;html=1;fontColor=#ffffff;fillColor=#d80073;strokeColor=#A50040;" parent="WULt9bE_Oc0r5N1BENyg-17" vertex="1">
                    <mxGeometry x="30" y="150" width="90" height="60" as="geometry"/>
                </mxCell>
                <mxCell id="WULt9bE_Oc0r5N1BENyg-23" value="&lt;font color=&quot;#ffffff&quot;&gt;User.js&lt;/font&gt;" style="text;html=1;strokeColor=none;fillColor=none;align=center;verticalAlign=middle;whiteSpace=wrap;rounded=0;fontColor=#3333FF;" parent="WULt9bE_Oc0r5N1BENyg-17" vertex="1">
                    <mxGeometry x="40" y="165" width="60" height="30" as="geometry"/>
                </mxCell>
                <mxCell id="WULt9bE_Oc0r5N1BENyg-24" value="" style="swimlane;startSize=0;fontColor=#000000;" parent="1" vertex="1">
                    <mxGeometry x="510" y="100" width="170" height="230" as="geometry"/>
                </mxCell>
                <mxCell id="WULt9bE_Oc0r5N1BENyg-25" value="&lt;b&gt;&lt;font color=&quot;#ffffff&quot;&gt;Controller&lt;/font&gt;&lt;/b&gt;" style="text;html=1;strokeColor=none;fillColor=none;align=center;verticalAlign=middle;whiteSpace=wrap;rounded=0;fontColor=#000000;" parent="WULt9bE_Oc0r5N1BENyg-24" vertex="1">
                    <mxGeometry x="50" y="10" width="60" height="30" as="geometry"/>
                </mxCell>
                <mxCell id="WULt9bE_Oc0r5N1BENyg-26" value="" style="rounded=1;whiteSpace=wrap;html=1;fontColor=#ffffff;fillColor=#6a00ff;strokeColor=#3700CC;" parent="WULt9bE_Oc0r5N1BENyg-24" vertex="1">
                    <mxGeometry x="50" y="60" width="70" height="60" as="geometry"/>
                </mxCell>
                <mxCell id="WULt9bE_Oc0r5N1BENyg-27" value="&lt;font color=&quot;#ffffff&quot;&gt;Todo.js&lt;/font&gt;" style="text;html=1;strokeColor=none;fillColor=none;align=center;verticalAlign=middle;whiteSpace=wrap;rounded=0;fontColor=#3333FF;" parent="WULt9bE_Oc0r5N1BENyg-24" vertex="1">
                    <mxGeometry x="55" y="75" width="60" height="30" as="geometry"/>
                </mxCell>
                <mxCell id="WULt9bE_Oc0r5N1BENyg-28" value="" style="rounded=1;whiteSpace=wrap;html=1;fontColor=#ffffff;fillColor=#d80073;strokeColor=#A50040;" parent="WULt9bE_Oc0r5N1BENyg-24" vertex="1">
                    <mxGeometry x="50" y="150" width="70" height="60" as="geometry"/>
                </mxCell>
                <mxCell id="WULt9bE_Oc0r5N1BENyg-29" value="&lt;font color=&quot;#ffffff&quot;&gt;User.js&lt;/font&gt;" style="text;html=1;strokeColor=none;fillColor=none;align=center;verticalAlign=middle;whiteSpace=wrap;rounded=0;fontColor=#3333FF;" parent="WULt9bE_Oc0r5N1BENyg-24" vertex="1">
                    <mxGeometry x="55" y="170" width="60" height="30" as="geometry"/>
                </mxCell>
                <mxCell id="WULt9bE_Oc0r5N1BENyg-30" value="" style="swimlane;startSize=0;fontColor=#000000;" parent="1" vertex="1">
                    <mxGeometry x="730" y="60" width="180" height="320" as="geometry"/>
                </mxCell>
                <mxCell id="WULt9bE_Oc0r5N1BENyg-31" value="&lt;b&gt;&lt;font color=&quot;#ffffff&quot;&gt;Model&lt;/font&gt;&lt;/b&gt;" style="text;html=1;strokeColor=none;fillColor=none;align=center;verticalAlign=middle;whiteSpace=wrap;rounded=0;fontColor=#000000;" parent="WULt9bE_Oc0r5N1BENyg-30" vertex="1">
                    <mxGeometry x="50" y="10" width="60" height="30" as="geometry"/>
                </mxCell>
                <mxCell id="WULt9bE_Oc0r5N1BENyg-32" value="" style="rounded=1;whiteSpace=wrap;html=1;fontColor=#ffffff;fillColor=#6a00ff;strokeColor=#3700CC;" parent="WULt9bE_Oc0r5N1BENyg-30" vertex="1">
                    <mxGeometry x="50" y="60" width="70" height="60" as="geometry"/>
                </mxCell>
                <mxCell id="WULt9bE_Oc0r5N1BENyg-34" value="" style="rounded=1;whiteSpace=wrap;html=1;fillColor=#d80073;strokeColor=#A50040;fontColor=#ffffff;" parent="WULt9bE_Oc0r5N1BENyg-30" vertex="1">
                    <mxGeometry x="50" y="150" width="70" height="60" as="geometry"/>
                </mxCell>
                <mxCell id="WULt9bE_Oc0r5N1BENyg-35" value="&lt;font color=&quot;#ffffff&quot;&gt;User.js&lt;/font&gt;" style="text;html=1;strokeColor=none;fillColor=none;align=center;verticalAlign=middle;whiteSpace=wrap;rounded=0;fontColor=#3333FF;" parent="WULt9bE_Oc0r5N1BENyg-30" vertex="1">
                    <mxGeometry x="55" y="170" width="60" height="30" as="geometry"/>
                </mxCell>
                <mxCell id="WULt9bE_Oc0r5N1BENyg-37" value="" style="shape=datastore;whiteSpace=wrap;html=1;fontColor=#ffffff;fillColor=#008a00;strokeColor=#005700;" parent="1" vertex="1">
                    <mxGeometry x="980" y="110" width="80" height="170" as="geometry"/>
                </mxCell>
                <mxCell id="WULt9bE_Oc0r5N1BENyg-38" value="&lt;font color=&quot;#ffffff&quot;&gt;MongoDB&lt;/font&gt;" style="text;html=1;strokeColor=none;fillColor=none;align=center;verticalAlign=middle;whiteSpace=wrap;rounded=0;fontColor=#3333FF;" parent="1" vertex="1">
                    <mxGeometry x="990" y="185" width="60" height="30" as="geometry"/>
                </mxCell>
                <mxCell id="WULt9bE_Oc0r5N1BENyg-44" value="" style="swimlane;startSize=0;fillColor=#eeeeee;strokeColor=#36393d;" parent="1" vertex="1">
                    <mxGeometry x="40" y="40" width="1040" height="390" as="geometry"/>
                </mxCell>
                <mxCell id="JxCJ9abAXO6MeIG5dilj-1" value="" style="rounded=1;whiteSpace=wrap;html=1;fontColor=#ffffff;fillColor=#76608a;strokeColor=#432D57;" parent="WULt9bE_Oc0r5N1BENyg-44" vertex="1">
                    <mxGeometry x="745" y="260" width="70" height="60" as="geometry"/>
                </mxCell>
                <mxCell id="JxCJ9abAXO6MeIG5dilj-2" value="&lt;font color=&quot;#ffffff&quot;&gt;Error.js&lt;/font&gt;" style="text;html=1;strokeColor=none;fillColor=none;align=center;verticalAlign=middle;whiteSpace=wrap;rounded=0;fontColor=#3333FF;" parent="WULt9bE_Oc0r5N1BENyg-44" vertex="1">
                    <mxGeometry x="755" y="275" width="60" height="30" as="geometry"/>
                </mxCell>
                <mxCell id="WULt9bE_Oc0r5N1BENyg-18" value="&lt;b&gt;&lt;font color=&quot;#ffffff&quot;&gt;Routes&lt;/font&gt;&lt;/b&gt;" style="text;html=1;strokeColor=none;fillColor=none;align=center;verticalAlign=middle;whiteSpace=wrap;rounded=0;fontColor=#000000;" parent="WULt9bE_Oc0r5N1BENyg-44" vertex="1">
                    <mxGeometry x="280" y="70" width="60" height="30" as="geometry"/>
                </mxCell>
                <mxCell id="WULt9bE_Oc0r5N1BENyg-20" value="&lt;font color=&quot;#ffffff&quot;&gt;Todo.js&lt;/font&gt;" style="text;html=1;strokeColor=none;fillColor=none;align=center;verticalAlign=middle;whiteSpace=wrap;rounded=0;fontColor=#3333FF;" parent="WULt9bE_Oc0r5N1BENyg-44" vertex="1">
                    <mxGeometry x="280" y="135" width="60" height="30" as="geometry"/>
                </mxCell>
                <mxCell id="WULt9bE_Oc0r5N1BENyg-33" value="&lt;font color=&quot;#ffffff&quot;&gt;Todo.js&lt;/font&gt;" style="text;html=1;strokeColor=none;fillColor=none;align=center;verticalAlign=middle;whiteSpace=wrap;rounded=0;fontColor=#3333FF;" parent="WULt9bE_Oc0r5N1BENyg-44" vertex="1">
                    <mxGeometry x="745" y="95" width="60" height="30" as="geometry"/>
                </mxCell>
            </root>
        </mxGraphModel>
    </diagram>
    <diagram id="6aBWus_uQZJFwqNAoYKr" name="TodoList">
        <mxGraphModel dx="1066" dy="607" grid="1" gridSize="10" guides="1" tooltips="1" connect="1" arrows="1" fold="1" page="1" pageScale="1" pageWidth="1100" pageHeight="850" math="0" shadow="0">
            <root>
                <mxCell id="0"/>
                <mxCell id="1" parent="0"/>
                <mxCell id="YyTq9um2DF816xr3UZrO-2" value="" style="swimlane;startSize=0;fontColor=#3333FF;" parent="1" vertex="1">
                    <mxGeometry x="80" y="40" width="510" height="460" as="geometry"/>
                </mxCell>
                <mxCell id="YyTq9um2DF816xr3UZrO-3" value="" style="sketch=0;outlineConnect=0;fontColor=#232F3E;gradientColor=none;fillColor=#D45B07;strokeColor=none;dashed=0;verticalLabelPosition=bottom;verticalAlign=top;align=center;html=1;fontSize=12;fontStyle=0;aspect=fixed;pointerEvents=1;shape=mxgraph.aws4.container_registry_image;" parent="YyTq9um2DF816xr3UZrO-2" vertex="1">
                    <mxGeometry x="20" y="30" width="48" height="48" as="geometry"/>
                </mxCell>
                <mxCell id="YyTq9um2DF816xr3UZrO-4" value="&lt;h1&gt;Heading&lt;/h1&gt;&lt;p&gt;.&lt;/p&gt;" style="text;html=1;strokeColor=none;fillColor=none;spacing=5;spacingTop=-20;whiteSpace=wrap;overflow=hidden;rounded=0;fontColor=#3333FF;" parent="YyTq9um2DF816xr3UZrO-2" vertex="1">
                    <mxGeometry x="80" y="18" width="190" height="60" as="geometry"/>
                </mxCell>
                <mxCell id="YyTq9um2DF816xr3UZrO-5" value="Add" style="rounded=1;html=1;shadow=0;dashed=0;whiteSpace=wrap;fontSize=10;fillColor=#666666;align=center;strokeColor=#4D4D4D;fontColor=#ffffff;" parent="YyTq9um2DF816xr3UZrO-2" vertex="1">
                    <mxGeometry x="260" y="30" width="105.5" height="16.88" as="geometry"/>
                </mxCell>
                <mxCell id="YyTq9um2DF816xr3UZrO-6" value="Sign out" style="rounded=1;html=1;shadow=0;dashed=0;whiteSpace=wrap;fontSize=10;fillColor=#E6E6E6;align=center;strokeColor=#E6E6E6;fontColor=#333333;" parent="YyTq9um2DF816xr3UZrO-2" vertex="1">
                    <mxGeometry x="380" y="31" width="105.5" height="16.88" as="geometry"/>
                </mxCell>
                <mxCell id="YyTq9um2DF816xr3UZrO-8" value="" style="sketch=0;html=1;aspect=fixed;strokeColor=none;shadow=0;align=center;verticalAlign=top;fillColor=#2D9C5E;shape=mxgraph.gcp2.check;fontColor=#3333FF;" parent="YyTq9um2DF816xr3UZrO-2" vertex="1">
                    <mxGeometry x="20" y="130" width="37.5" height="30" as="geometry"/>
                </mxCell>
                <mxCell id="YyTq9um2DF816xr3UZrO-9" value="" style="strokeWidth=1;html=1;shadow=0;dashed=0;shape=mxgraph.android.statusBar;align=center;fillColor=#000000;strokeColor=#ffffff;fontColor=#ffffff;fontSize=10;sketch=0;" parent="YyTq9um2DF816xr3UZrO-2" vertex="1">
                    <mxGeometry x="77" y="130" width="183.57" height="40" as="geometry"/>
                </mxCell>
                <mxCell id="YyTq9um2DF816xr3UZrO-10" value="" style="html=1;verticalLabelPosition=bottom;align=center;labelBackgroundColor=#ffffff;verticalAlign=top;strokeWidth=2;strokeColor=#0080F0;shadow=0;dashed=0;shape=mxgraph.ios7.icons.compose;fontColor=#3333FF;" parent="YyTq9um2DF816xr3UZrO-2" vertex="1">
                    <mxGeometry x="313.5" y="120" width="52" height="45.1" as="geometry"/>
                </mxCell>
                <mxCell id="YyTq9um2DF816xr3UZrO-12" value="" style="verticalLabelPosition=bottom;verticalAlign=top;html=1;shadow=0;dashed=0;strokeWidth=1;shape=mxgraph.ios.iDeleteApp;fillColor=#cccccc;fillColor2=#000000;strokeColor=#ffffff;sketch=0;fontColor=#3333FF;" parent="YyTq9um2DF816xr3UZrO-2" vertex="1">
                    <mxGeometry x="410" y="130" width="50" height="40" as="geometry"/>
                </mxCell>
                <mxCell id="YyTq9um2DF816xr3UZrO-13" value="" style="sketch=0;html=1;aspect=fixed;strokeColor=none;shadow=0;align=center;verticalAlign=top;fillColor=#2D9C5E;shape=mxgraph.gcp2.check;fontColor=#3333FF;" parent="YyTq9um2DF816xr3UZrO-2" vertex="1">
                    <mxGeometry x="20" y="210" width="37.5" height="30" as="geometry"/>
                </mxCell>
                <mxCell id="YyTq9um2DF816xr3UZrO-14" value="" style="strokeWidth=1;html=1;shadow=0;dashed=0;shape=mxgraph.android.statusBar;align=center;fillColor=#000000;strokeColor=#ffffff;fontColor=#ffffff;fontSize=10;sketch=0;" parent="YyTq9um2DF816xr3UZrO-2" vertex="1">
                    <mxGeometry x="77" y="210" width="183.57" height="40" as="geometry"/>
                </mxCell>
                <mxCell id="YyTq9um2DF816xr3UZrO-15" value="" style="html=1;verticalLabelPosition=bottom;align=center;labelBackgroundColor=#ffffff;verticalAlign=top;strokeWidth=2;strokeColor=#0080F0;shadow=0;dashed=0;shape=mxgraph.ios7.icons.compose;fontColor=#3333FF;" parent="YyTq9um2DF816xr3UZrO-2" vertex="1">
                    <mxGeometry x="313.5" y="200" width="52" height="45.1" as="geometry"/>
                </mxCell>
                <mxCell id="YyTq9um2DF816xr3UZrO-16" value="" style="verticalLabelPosition=bottom;verticalAlign=top;html=1;shadow=0;dashed=0;strokeWidth=1;shape=mxgraph.ios.iDeleteApp;fillColor=#cccccc;fillColor2=#000000;strokeColor=#ffffff;sketch=0;fontColor=#3333FF;" parent="YyTq9um2DF816xr3UZrO-2" vertex="1">
                    <mxGeometry x="410" y="210" width="50" height="40" as="geometry"/>
                </mxCell>
                <mxCell id="YyTq9um2DF816xr3UZrO-17" value="" style="strokeWidth=1;html=1;shadow=0;dashed=0;shape=mxgraph.android.statusBar;align=center;fillColor=#000000;strokeColor=#ffffff;fontColor=#ffffff;fontSize=10;sketch=0;" parent="YyTq9um2DF816xr3UZrO-2" vertex="1">
                    <mxGeometry x="80" y="295.1" width="183.57" height="40" as="geometry"/>
                </mxCell>
                <mxCell id="YyTq9um2DF816xr3UZrO-18" value="" style="html=1;verticalLabelPosition=bottom;align=center;labelBackgroundColor=#ffffff;verticalAlign=top;strokeWidth=2;strokeColor=#0080F0;shadow=0;dashed=0;shape=mxgraph.ios7.icons.compose;fontColor=#3333FF;" parent="YyTq9um2DF816xr3UZrO-2" vertex="1">
                    <mxGeometry x="313.5" y="290" width="52" height="45.1" as="geometry"/>
                </mxCell>
                <mxCell id="YyTq9um2DF816xr3UZrO-19" value="" style="verticalLabelPosition=bottom;verticalAlign=top;html=1;shadow=0;dashed=0;strokeWidth=1;shape=mxgraph.ios.iDeleteApp;fillColor=#cccccc;fillColor2=#000000;strokeColor=#ffffff;sketch=0;fontColor=#3333FF;" parent="YyTq9um2DF816xr3UZrO-2" vertex="1">
                    <mxGeometry x="412.75" y="300" width="47.25" height="40" as="geometry"/>
                </mxCell>
                <mxCell id="YyTq9um2DF816xr3UZrO-21" value="" style="sketch=0;html=1;aspect=fixed;strokeColor=none;shadow=0;align=center;verticalAlign=top;fillColor=#2D9C5E;shape=mxgraph.gcp2.check;fontColor=#3333FF;" parent="YyTq9um2DF816xr3UZrO-2" vertex="1">
                    <mxGeometry x="20" y="305.1" width="31.12" height="24.9" as="geometry"/>
                </mxCell>
            </root>
        </mxGraphModel>
    </diagram>
    <diagram id="ghnnJUJUzakpzmj-Oj77" name="Add/Edit Form">
        <mxGraphModel dx="1066" dy="607" grid="1" gridSize="10" guides="1" tooltips="1" connect="1" arrows="1" fold="1" page="1" pageScale="1" pageWidth="1100" pageHeight="850" math="0" shadow="0">
            <root>
                <mxCell id="0"/>
                <mxCell id="1" parent="0"/>
                <mxCell id="hTo2zYeNGtl23epLnosd-1" value="" style="swimlane;startSize=0;fontColor=#3333FF;" parent="1" vertex="1">
                    <mxGeometry x="140" y="10" width="640" height="440" as="geometry"/>
                </mxCell>
                <mxCell id="JBWkkPqkZbsM2NA55eVw-1" value="&lt;h1&gt;Title&lt;/h1&gt;" style="text;html=1;strokeColor=none;fillColor=none;spacing=5;spacingTop=-20;whiteSpace=wrap;overflow=hidden;rounded=0;fontColor=#3333FF;" parent="hTo2zYeNGtl23epLnosd-1" vertex="1">
                    <mxGeometry x="140" y="10" width="190" height="50" as="geometry"/>
                </mxCell>
                <mxCell id="JBWkkPqkZbsM2NA55eVw-14" value="Progress Range&lt;br&gt;" style="html=1;shadow=0;dashed=0;shape=mxgraph.bootstrap.rangeInput;dx=0.57;strokeColor=#0085FC;fillColor=#DEE2E6;fontColor=#777777;whiteSpace=wrap;align=left;verticalAlign=bottom;fontStyle=0;fontSize=14;labelPosition=center;verticalLabelPosition=top;" parent="hTo2zYeNGtl23epLnosd-1" vertex="1">
                    <mxGeometry x="85" y="180" width="410" height="20" as="geometry"/>
                </mxCell>
                <mxCell id="JBWkkPqkZbsM2NA55eVw-16" value="" style="strokeWidth=1;shadow=0;dashed=0;align=center;html=1;shape=mxgraph.mockup.forms.rrect;rSize=5;strokeColor=#999999;fillColor=#ffffff;fontColor=#3333FF;" parent="hTo2zYeNGtl23epLnosd-1" vertex="1">
                    <mxGeometry x="200" y="210" width="160" height="120" as="geometry"/>
                </mxCell>
                <mxCell id="JBWkkPqkZbsM2NA55eVw-17" value="October 2014" style="strokeWidth=1;shadow=0;dashed=0;align=center;html=1;shape=mxgraph.mockup.forms.anchor;fontColor=#999999;" parent="JBWkkPqkZbsM2NA55eVw-16" vertex="1">
                    <mxGeometry x="30" y="5.485714285714286" width="100" height="13.714285714285715" as="geometry"/>
                </mxCell>
                <mxCell id="JBWkkPqkZbsM2NA55eVw-18" value="&lt;" style="strokeWidth=1;shadow=0;dashed=0;align=center;html=1;shape=mxgraph.mockup.forms.rrect;rSize=4;strokeColor=#999999;fontColor=#008cff;fontSize=19;fontStyle=1;" parent="JBWkkPqkZbsM2NA55eVw-16" vertex="1">
                    <mxGeometry x="8" y="5.485714285714286" width="25" height="13.714285714285715" as="geometry"/>
                </mxCell>
                <mxCell id="JBWkkPqkZbsM2NA55eVw-19" value="&gt;" style="strokeWidth=1;shadow=0;dashed=0;align=center;html=1;shape=mxgraph.mockup.forms.rrect;rSize=4;strokeColor=#999999;fontColor=#008cff;fontSize=19;fontStyle=1;" parent="JBWkkPqkZbsM2NA55eVw-16" vertex="1">
                    <mxGeometry x="127" y="5.485714285714286" width="25" height="13.714285714285715" as="geometry"/>
                </mxCell>
                <mxCell id="JBWkkPqkZbsM2NA55eVw-20" value="Mo" style="strokeWidth=1;shadow=0;dashed=0;align=center;html=1;shape=mxgraph.mockup.forms.anchor;fontColor=#999999;" parent="JBWkkPqkZbsM2NA55eVw-16" vertex="1">
                    <mxGeometry x="10" y="19.200000000000003" width="20" height="13.714285714285715" as="geometry"/>
                </mxCell>
                <mxCell id="JBWkkPqkZbsM2NA55eVw-21" value="Tu" style="strokeWidth=1;shadow=0;dashed=0;align=center;html=1;shape=mxgraph.mockup.forms.anchor;fontColor=#999999;" parent="JBWkkPqkZbsM2NA55eVw-16" vertex="1">
                    <mxGeometry x="30" y="19.200000000000003" width="20" height="13.714285714285715" as="geometry"/>
                </mxCell>
                <mxCell id="JBWkkPqkZbsM2NA55eVw-22" value="We" style="strokeWidth=1;shadow=0;dashed=0;align=center;html=1;shape=mxgraph.mockup.forms.anchor;fontColor=#999999;" parent="JBWkkPqkZbsM2NA55eVw-16" vertex="1">
                    <mxGeometry x="50" y="19.200000000000003" width="20" height="13.714285714285715" as="geometry"/>
                </mxCell>
                <mxCell id="JBWkkPqkZbsM2NA55eVw-23" value="Th" style="strokeWidth=1;shadow=0;dashed=0;align=center;html=1;shape=mxgraph.mockup.forms.anchor;fontColor=#999999;" parent="JBWkkPqkZbsM2NA55eVw-16" vertex="1">
                    <mxGeometry x="70" y="19.200000000000003" width="20" height="13.714285714285715" as="geometry"/>
                </mxCell>
                <mxCell id="JBWkkPqkZbsM2NA55eVw-24" value="Fr" style="strokeWidth=1;shadow=0;dashed=0;align=center;html=1;shape=mxgraph.mockup.forms.anchor;fontColor=#999999;" parent="JBWkkPqkZbsM2NA55eVw-16" vertex="1">
                    <mxGeometry x="90" y="19.200000000000003" width="20" height="13.714285714285715" as="geometry"/>
                </mxCell>
                <mxCell id="JBWkkPqkZbsM2NA55eVw-25" value="Sa" style="strokeWidth=1;shadow=0;dashed=0;align=center;html=1;shape=mxgraph.mockup.forms.anchor;fontColor=#999999;" parent="JBWkkPqkZbsM2NA55eVw-16" vertex="1">
                    <mxGeometry x="110" y="19.200000000000003" width="20" height="13.714285714285715" as="geometry"/>
                </mxCell>
                <mxCell id="JBWkkPqkZbsM2NA55eVw-26" value="Su" style="strokeWidth=1;shadow=0;dashed=0;align=center;html=1;shape=mxgraph.mockup.forms.anchor;fontColor=#999999;" parent="JBWkkPqkZbsM2NA55eVw-16" vertex="1">
                    <mxGeometry x="130" y="19.200000000000003" width="20" height="13.714285714285715" as="geometry"/>
                </mxCell>
                <mxCell id="JBWkkPqkZbsM2NA55eVw-27" value="1" style="strokeWidth=1;shadow=0;dashed=0;align=center;html=1;shape=mxgraph.mockup.forms.rrect;rSize=0;strokeColor=#999999;fontColor=#999999;" parent="JBWkkPqkZbsM2NA55eVw-16" vertex="1">
                    <mxGeometry x="10" y="32.91428571428571" width="20" height="13.714285714285715" as="geometry"/>
                </mxCell>
                <mxCell id="JBWkkPqkZbsM2NA55eVw-28" value="2" style="strokeWidth=1;shadow=0;dashed=0;align=center;html=1;shape=mxgraph.mockup.forms.rrect;rSize=0;strokeColor=#999999;fontColor=#999999;" parent="JBWkkPqkZbsM2NA55eVw-16" vertex="1">
                    <mxGeometry x="30" y="32.91428571428571" width="20" height="13.714285714285715" as="geometry"/>
                </mxCell>
                <mxCell id="JBWkkPqkZbsM2NA55eVw-29" value="3" style="strokeWidth=1;shadow=0;dashed=0;align=center;html=1;shape=mxgraph.mockup.forms.rrect;rSize=0;strokeColor=#999999;fontColor=#999999;" parent="JBWkkPqkZbsM2NA55eVw-16" vertex="1">
                    <mxGeometry x="50" y="32.91428571428571" width="20" height="13.714285714285715" as="geometry"/>
                </mxCell>
                <mxCell id="JBWkkPqkZbsM2NA55eVw-30" value="4" style="strokeWidth=1;shadow=0;dashed=0;align=center;html=1;shape=mxgraph.mockup.forms.rrect;rSize=0;strokeColor=#999999;fontColor=#999999;" parent="JBWkkPqkZbsM2NA55eVw-16" vertex="1">
                    <mxGeometry x="70" y="32.91428571428571" width="20" height="13.714285714285715" as="geometry"/>
                </mxCell>
                <mxCell id="JBWkkPqkZbsM2NA55eVw-31" value="5" style="strokeWidth=1;shadow=0;dashed=0;align=center;html=1;shape=mxgraph.mockup.forms.rrect;rSize=0;strokeColor=#999999;fontColor=#999999;" parent="JBWkkPqkZbsM2NA55eVw-16" vertex="1">
                    <mxGeometry x="90" y="32.91428571428571" width="20" height="13.714285714285715" as="geometry"/>
                </mxCell>
                <mxCell id="JBWkkPqkZbsM2NA55eVw-32" value="6" style="strokeWidth=1;shadow=0;dashed=0;align=center;html=1;shape=mxgraph.mockup.forms.rrect;rSize=0;strokeColor=#999999;fontColor=#999999;" parent="JBWkkPqkZbsM2NA55eVw-16" vertex="1">
                    <mxGeometry x="110" y="32.91428571428571" width="20" height="13.714285714285715" as="geometry"/>
                </mxCell>
                <mxCell id="JBWkkPqkZbsM2NA55eVw-33" value="7" style="strokeWidth=1;shadow=0;dashed=0;align=center;html=1;shape=mxgraph.mockup.forms.rrect;rSize=0;strokeColor=#999999;fontColor=#999999;" parent="JBWkkPqkZbsM2NA55eVw-16" vertex="1">
                    <mxGeometry x="130" y="32.91428571428571" width="20" height="13.714285714285715" as="geometry"/>
                </mxCell>
                <mxCell id="JBWkkPqkZbsM2NA55eVw-34" value="8" style="strokeWidth=1;shadow=0;dashed=0;align=center;html=1;shape=mxgraph.mockup.forms.rrect;rSize=0;strokeColor=#999999;fontColor=#999999;" parent="JBWkkPqkZbsM2NA55eVw-16" vertex="1">
                    <mxGeometry x="10" y="46.62857142857143" width="20" height="13.714285714285715" as="geometry"/>
                </mxCell>
                <mxCell id="JBWkkPqkZbsM2NA55eVw-35" value="9" style="strokeWidth=1;shadow=0;dashed=0;align=center;html=1;shape=mxgraph.mockup.forms.rrect;rSize=0;strokeColor=#999999;fontColor=#999999;" parent="JBWkkPqkZbsM2NA55eVw-16" vertex="1">
                    <mxGeometry x="30" y="46.62857142857143" width="20" height="13.714285714285715" as="geometry"/>
                </mxCell>
                <mxCell id="JBWkkPqkZbsM2NA55eVw-36" value="10" style="strokeWidth=1;shadow=0;dashed=0;align=center;html=1;shape=mxgraph.mockup.forms.rrect;rSize=0;strokeColor=#999999;fontColor=#999999;" parent="JBWkkPqkZbsM2NA55eVw-16" vertex="1">
                    <mxGeometry x="50" y="46.62857142857143" width="20" height="13.714285714285715" as="geometry"/>
                </mxCell>
                <mxCell id="JBWkkPqkZbsM2NA55eVw-37" value="11" style="strokeWidth=1;shadow=0;dashed=0;align=center;html=1;shape=mxgraph.mockup.forms.rrect;rSize=0;strokeColor=#999999;fontColor=#999999;" parent="JBWkkPqkZbsM2NA55eVw-16" vertex="1">
                    <mxGeometry x="70" y="46.62857142857143" width="20" height="13.714285714285715" as="geometry"/>
                </mxCell>
                <mxCell id="JBWkkPqkZbsM2NA55eVw-38" value="12" style="strokeWidth=1;shadow=0;dashed=0;align=center;html=1;shape=mxgraph.mockup.forms.rrect;rSize=0;strokeColor=#999999;fontColor=#999999;" parent="JBWkkPqkZbsM2NA55eVw-16" vertex="1">
                    <mxGeometry x="90" y="46.62857142857143" width="20" height="13.714285714285715" as="geometry"/>
                </mxCell>
                <mxCell id="JBWkkPqkZbsM2NA55eVw-39" value="13" style="strokeWidth=1;shadow=0;dashed=0;align=center;html=1;shape=mxgraph.mockup.forms.rrect;rSize=0;strokeColor=#999999;fontColor=#999999;" parent="JBWkkPqkZbsM2NA55eVw-16" vertex="1">
                    <mxGeometry x="110" y="46.62857142857143" width="20" height="13.714285714285715" as="geometry"/>
                </mxCell>
                <mxCell id="JBWkkPqkZbsM2NA55eVw-40" value="14" style="strokeWidth=1;shadow=0;dashed=0;align=center;html=1;shape=mxgraph.mockup.forms.rrect;rSize=0;strokeColor=#999999;fontColor=#999999;" parent="JBWkkPqkZbsM2NA55eVw-16" vertex="1">
                    <mxGeometry x="130" y="46.62857142857143" width="20" height="13.714285714285715" as="geometry"/>
                </mxCell>
                <mxCell id="JBWkkPqkZbsM2NA55eVw-41" value="15" style="strokeWidth=1;shadow=0;dashed=0;align=center;html=1;shape=mxgraph.mockup.forms.rrect;rSize=0;strokeColor=#999999;fontColor=#999999;" parent="JBWkkPqkZbsM2NA55eVw-16" vertex="1">
                    <mxGeometry x="10" y="60.342857142857135" width="20" height="13.714285714285715" as="geometry"/>
                </mxCell>
                <mxCell id="JBWkkPqkZbsM2NA55eVw-42" value="16" style="strokeWidth=1;shadow=0;dashed=0;align=center;html=1;shape=mxgraph.mockup.forms.rrect;rSize=0;strokeColor=#999999;fontColor=#999999;" parent="JBWkkPqkZbsM2NA55eVw-16" vertex="1">
                    <mxGeometry x="30" y="60.342857142857135" width="20" height="13.714285714285715" as="geometry"/>
                </mxCell>
                <mxCell id="JBWkkPqkZbsM2NA55eVw-43" value="17" style="strokeWidth=1;shadow=0;dashed=0;align=center;html=1;shape=mxgraph.mockup.forms.rrect;rSize=0;strokeColor=#999999;fontColor=#999999;" parent="JBWkkPqkZbsM2NA55eVw-16" vertex="1">
                    <mxGeometry x="50" y="60.342857142857135" width="20" height="13.714285714285715" as="geometry"/>
                </mxCell>
                <mxCell id="JBWkkPqkZbsM2NA55eVw-44" value="18" style="strokeWidth=1;shadow=0;dashed=0;align=center;html=1;shape=mxgraph.mockup.forms.rrect;rSize=0;strokeColor=#999999;fontColor=#999999;" parent="JBWkkPqkZbsM2NA55eVw-16" vertex="1">
                    <mxGeometry x="70" y="60.342857142857135" width="20" height="13.714285714285715" as="geometry"/>
                </mxCell>
                <mxCell id="JBWkkPqkZbsM2NA55eVw-45" value="19" style="strokeWidth=1;shadow=0;dashed=0;align=center;html=1;shape=mxgraph.mockup.forms.rrect;rSize=0;strokeColor=#999999;fontColor=#999999;" parent="JBWkkPqkZbsM2NA55eVw-16" vertex="1">
                    <mxGeometry x="90" y="60.342857142857135" width="20" height="13.714285714285715" as="geometry"/>
                </mxCell>
                <mxCell id="JBWkkPqkZbsM2NA55eVw-46" value="20" style="strokeWidth=1;shadow=0;dashed=0;align=center;html=1;shape=mxgraph.mockup.forms.rrect;rSize=0;strokeColor=#999999;fontColor=#999999;" parent="JBWkkPqkZbsM2NA55eVw-16" vertex="1">
                    <mxGeometry x="110" y="60.342857142857135" width="20" height="13.714285714285715" as="geometry"/>
                </mxCell>
                <mxCell id="JBWkkPqkZbsM2NA55eVw-47" value="21" style="strokeWidth=1;shadow=0;dashed=0;align=center;html=1;shape=mxgraph.mockup.forms.rrect;rSize=0;strokeColor=#999999;fontColor=#999999;" parent="JBWkkPqkZbsM2NA55eVw-16" vertex="1">
                    <mxGeometry x="130" y="60.342857142857135" width="20" height="13.714285714285715" as="geometry"/>
                </mxCell>
                <mxCell id="JBWkkPqkZbsM2NA55eVw-48" value="22" style="strokeWidth=1;shadow=0;dashed=0;align=center;html=1;shape=mxgraph.mockup.forms.rrect;rSize=0;strokeColor=#999999;fontColor=#999999;" parent="JBWkkPqkZbsM2NA55eVw-16" vertex="1">
                    <mxGeometry x="10" y="74.05714285714285" width="20" height="13.714285714285715" as="geometry"/>
                </mxCell>
                <mxCell id="JBWkkPqkZbsM2NA55eVw-49" value="23" style="strokeWidth=1;shadow=0;dashed=0;align=center;html=1;shape=mxgraph.mockup.forms.rrect;rSize=0;strokeColor=#999999;fontColor=#999999;" parent="JBWkkPqkZbsM2NA55eVw-16" vertex="1">
                    <mxGeometry x="30" y="74.05714285714285" width="20" height="13.714285714285715" as="geometry"/>
                </mxCell>
                <mxCell id="JBWkkPqkZbsM2NA55eVw-50" value="25" style="strokeWidth=1;shadow=0;dashed=0;align=center;html=1;shape=mxgraph.mockup.forms.rrect;rSize=0;strokeColor=#999999;fontColor=#999999;" parent="JBWkkPqkZbsM2NA55eVw-16" vertex="1">
                    <mxGeometry x="70" y="74.05714285714285" width="20" height="13.714285714285715" as="geometry"/>
                </mxCell>
                <mxCell id="JBWkkPqkZbsM2NA55eVw-51" value="26" style="strokeWidth=1;shadow=0;dashed=0;align=center;html=1;shape=mxgraph.mockup.forms.rrect;rSize=0;strokeColor=#999999;fontColor=#999999;" parent="JBWkkPqkZbsM2NA55eVw-16" vertex="1">
                    <mxGeometry x="90" y="74.05714285714285" width="20" height="13.714285714285715" as="geometry"/>
                </mxCell>
                <mxCell id="JBWkkPqkZbsM2NA55eVw-52" value="27" style="strokeWidth=1;shadow=0;dashed=0;align=center;html=1;shape=mxgraph.mockup.forms.rrect;rSize=0;strokeColor=#999999;fontColor=#999999;" parent="JBWkkPqkZbsM2NA55eVw-16" vertex="1">
                    <mxGeometry x="110" y="74.05714285714285" width="20" height="13.714285714285715" as="geometry"/>
                </mxCell>
                <mxCell id="JBWkkPqkZbsM2NA55eVw-53" value="28" style="strokeWidth=1;shadow=0;dashed=0;align=center;html=1;shape=mxgraph.mockup.forms.rrect;rSize=0;strokeColor=#999999;fontColor=#999999;" parent="JBWkkPqkZbsM2NA55eVw-16" vertex="1">
                    <mxGeometry x="130" y="74.05714285714285" width="20" height="13.714285714285715" as="geometry"/>
                </mxCell>
                <mxCell id="JBWkkPqkZbsM2NA55eVw-54" value="29" style="strokeWidth=1;shadow=0;dashed=0;align=center;html=1;shape=mxgraph.mockup.forms.rrect;rSize=0;strokeColor=#999999;fontColor=#999999;" parent="JBWkkPqkZbsM2NA55eVw-16" vertex="1">
                    <mxGeometry x="10" y="87.77142857142857" width="20" height="13.714285714285715" as="geometry"/>
                </mxCell>
                <mxCell id="JBWkkPqkZbsM2NA55eVw-55" value="30" style="strokeWidth=1;shadow=0;dashed=0;align=center;html=1;shape=mxgraph.mockup.forms.rrect;rSize=0;strokeColor=#999999;fontColor=#999999;" parent="JBWkkPqkZbsM2NA55eVw-16" vertex="1">
                    <mxGeometry x="30" y="87.77142857142857" width="20" height="13.714285714285715" as="geometry"/>
                </mxCell>
                <mxCell id="JBWkkPqkZbsM2NA55eVw-56" value="31" style="strokeWidth=1;shadow=0;dashed=0;align=center;html=1;shape=mxgraph.mockup.forms.rrect;rSize=0;strokeColor=#999999;fontColor=#999999;" parent="JBWkkPqkZbsM2NA55eVw-16" vertex="1">
                    <mxGeometry x="50" y="87.77142857142857" width="20" height="13.714285714285715" as="geometry"/>
                </mxCell>
                <mxCell id="JBWkkPqkZbsM2NA55eVw-57" value="1" style="strokeWidth=1;shadow=0;dashed=0;align=center;html=1;shape=mxgraph.mockup.forms.rrect;rSize=0;strokeColor=#999999;fontColor=#999999;fillColor=#ddeeff;" parent="JBWkkPqkZbsM2NA55eVw-16" vertex="1">
                    <mxGeometry x="70" y="87.77142857142857" width="20" height="13.714285714285715" as="geometry"/>
                </mxCell>
                <mxCell id="JBWkkPqkZbsM2NA55eVw-58" value="2" style="strokeWidth=1;shadow=0;dashed=0;align=center;html=1;shape=mxgraph.mockup.forms.rrect;rSize=0;strokeColor=#999999;fontColor=#999999;fillColor=#ddeeff;" parent="JBWkkPqkZbsM2NA55eVw-16" vertex="1">
                    <mxGeometry x="90" y="87.77142857142857" width="20" height="13.714285714285715" as="geometry"/>
                </mxCell>
                <mxCell id="JBWkkPqkZbsM2NA55eVw-59" value="3" style="strokeWidth=1;shadow=0;dashed=0;align=center;html=1;shape=mxgraph.mockup.forms.rrect;rSize=0;strokeColor=#999999;fontColor=#999999;fillColor=#ddeeff;" parent="JBWkkPqkZbsM2NA55eVw-16" vertex="1">
                    <mxGeometry x="110" y="87.77142857142857" width="20" height="13.714285714285715" as="geometry"/>
                </mxCell>
                <mxCell id="JBWkkPqkZbsM2NA55eVw-60" value="4" style="strokeWidth=1;shadow=0;dashed=0;align=center;html=1;shape=mxgraph.mockup.forms.rrect;rSize=0;strokeColor=#999999;fontColor=#999999;fillColor=#ddeeff;" parent="JBWkkPqkZbsM2NA55eVw-16" vertex="1">
                    <mxGeometry x="130" y="87.77142857142857" width="20" height="13.714285714285715" as="geometry"/>
                </mxCell>
                <mxCell id="JBWkkPqkZbsM2NA55eVw-61" value="5" style="strokeWidth=1;shadow=0;dashed=0;align=center;html=1;shape=mxgraph.mockup.forms.rrect;rSize=0;strokeColor=#999999;fontColor=#999999;fillColor=#ddeeff;" parent="JBWkkPqkZbsM2NA55eVw-16" vertex="1">
                    <mxGeometry x="10" y="101.4857142857143" width="20" height="13.714285714285715" as="geometry"/>
                </mxCell>
                <mxCell id="JBWkkPqkZbsM2NA55eVw-62" value="6" style="strokeWidth=1;shadow=0;dashed=0;align=center;html=1;shape=mxgraph.mockup.forms.rrect;rSize=0;strokeColor=#999999;fontColor=#999999;fillColor=#ddeeff;" parent="JBWkkPqkZbsM2NA55eVw-16" vertex="1">
                    <mxGeometry x="30" y="101.4857142857143" width="20" height="13.714285714285715" as="geometry"/>
                </mxCell>
                <mxCell id="JBWkkPqkZbsM2NA55eVw-63" value="7" style="strokeWidth=1;shadow=0;dashed=0;align=center;html=1;shape=mxgraph.mockup.forms.rrect;rSize=0;strokeColor=#999999;fontColor=#999999;fillColor=#ddeeff;" parent="JBWkkPqkZbsM2NA55eVw-16" vertex="1">
                    <mxGeometry x="50" y="101.4857142857143" width="20" height="13.714285714285715" as="geometry"/>
                </mxCell>
                <mxCell id="JBWkkPqkZbsM2NA55eVw-64" value="8" style="strokeWidth=1;shadow=0;dashed=0;align=center;html=1;shape=mxgraph.mockup.forms.rrect;rSize=0;strokeColor=#999999;fontColor=#999999;fillColor=#ddeeff;" parent="JBWkkPqkZbsM2NA55eVw-16" vertex="1">
                    <mxGeometry x="70" y="101.4857142857143" width="20" height="13.714285714285715" as="geometry"/>
                </mxCell>
                <mxCell id="JBWkkPqkZbsM2NA55eVw-65" value="9" style="strokeWidth=1;shadow=0;dashed=0;align=center;html=1;shape=mxgraph.mockup.forms.rrect;rSize=0;strokeColor=#999999;fontColor=#999999;fillColor=#ddeeff;" parent="JBWkkPqkZbsM2NA55eVw-16" vertex="1">
                    <mxGeometry x="90" y="101.4857142857143" width="20" height="13.714285714285715" as="geometry"/>
                </mxCell>
                <mxCell id="JBWkkPqkZbsM2NA55eVw-66" value="10" style="strokeWidth=1;shadow=0;dashed=0;align=center;html=1;shape=mxgraph.mockup.forms.rrect;rSize=0;strokeColor=#999999;fontColor=#999999;fillColor=#ddeeff;" parent="JBWkkPqkZbsM2NA55eVw-16" vertex="1">
                    <mxGeometry x="110" y="101.4857142857143" width="20" height="13.714285714285715" as="geometry"/>
                </mxCell>
                <mxCell id="JBWkkPqkZbsM2NA55eVw-67" value="11" style="strokeWidth=1;shadow=0;dashed=0;align=center;html=1;shape=mxgraph.mockup.forms.rrect;rSize=0;strokeColor=#999999;fontColor=#999999;fillColor=#ddeeff;" parent="JBWkkPqkZbsM2NA55eVw-16" vertex="1">
                    <mxGeometry x="130" y="101.4857142857143" width="20" height="13.714285714285715" as="geometry"/>
                </mxCell>
                <mxCell id="JBWkkPqkZbsM2NA55eVw-68" value="24" style="strokeWidth=1;shadow=0;dashed=0;align=center;html=1;shape=mxgraph.mockup.forms.rrect;rSize=0;strokeColor=#ff0000;fontColor=#ffffff;strokeWidth=2;fillColor=#008cff;" parent="JBWkkPqkZbsM2NA55eVw-16" vertex="1">
                    <mxGeometry x="50" y="74.05714285714285" width="20" height="13.714285714285715" as="geometry"/>
                </mxCell>
                <mxCell id="JBWkkPqkZbsM2NA55eVw-80" value="" style="html=1;shadow=0;dashed=0;shape=mxgraph.bootstrap.rrect;rSize=5;strokeColor=#CED4DA;html=1;whiteSpace=wrap;fillColor=#FFFFFF;fontColor=#7D868C;align=left;spacing=15;spacingLeft=40;fontSize=14;" parent="hTo2zYeNGtl23epLnosd-1" vertex="1">
                    <mxGeometry x="70" y="80" width="490" height="50" as="geometry"/>
                </mxCell>
                <mxCell id="JBWkkPqkZbsM2NA55eVw-81" value="With textarea" style="html=1;shadow=0;dashed=0;shape=mxgraph.bootstrap.leftButton;strokeColor=inherit;gradientColor=inherit;fontColor=inherit;fillColor=#E9ECEF;rSize=5;perimeter=none;whiteSpace=wrap;resizeHeight=1;fontSize=14;" parent="JBWkkPqkZbsM2NA55eVw-80" vertex="1">
                    <mxGeometry width="61.25" height="50" as="geometry"/>
                </mxCell>
                <mxCell id="JBWkkPqkZbsM2NA55eVw-82" value="Submit" style="rounded=1;fillColor=#0057D8;align=center;strokeColor=none;html=1;fontColor=#ffffff;fontSize=12;sketch=0;" parent="hTo2zYeNGtl23epLnosd-1" vertex="1">
                    <mxGeometry x="119" y="366" width="322" height="33" as="geometry"/>
                </mxCell>
            </root>
        </mxGraphModel>
    </diagram>
    <diagram id="LsXssC0eBiZvZ1wJscOA" name="frontend-architecture">
        <mxGraphModel dx="1066" dy="607" grid="1" gridSize="10" guides="1" tooltips="1" connect="1" arrows="1" fold="1" page="1" pageScale="1" pageWidth="1100" pageHeight="850" math="0" shadow="0">
            <root>
                <mxCell id="0"/>
                <mxCell id="1" parent="0"/>
                <mxCell id="f_O2-wFuMA8MrVj1vAAy-1" value="" style="rounded=1;whiteSpace=wrap;html=1;fontColor=#FFFFFF;" parent="1" vertex="1">
                    <mxGeometry x="240" y="140" width="150" height="70" as="geometry"/>
                </mxCell>
                <mxCell id="f_O2-wFuMA8MrVj1vAAy-2" value="App.js" style="text;html=1;strokeColor=none;fillColor=none;align=center;verticalAlign=middle;whiteSpace=wrap;rounded=0;fontColor=#FFFFFF;" parent="1" vertex="1">
                    <mxGeometry x="285" y="160" width="60" height="30" as="geometry"/>
                </mxCell>
                <mxCell id="f_O2-wFuMA8MrVj1vAAy-4" value="" style="swimlane;startSize=0;fontColor=#ffffff;fillColor=#6a00ff;strokeColor=#3700CC;" parent="1" vertex="1">
                    <mxGeometry x="560" y="450" width="400" height="340" as="geometry"/>
                </mxCell>
                <mxCell id="f_O2-wFuMA8MrVj1vAAy-6" value="&lt;h1&gt;User&lt;/h1&gt;" style="text;html=1;strokeColor=none;fillColor=none;spacing=5;spacingTop=-20;whiteSpace=wrap;overflow=hidden;rounded=0;fontColor=#FFFFFF;" parent="f_O2-wFuMA8MrVj1vAAy-4" vertex="1">
                    <mxGeometry x="20" width="90" height="50" as="geometry"/>
                </mxCell>
                <mxCell id="f_O2-wFuMA8MrVj1vAAy-7" value="" style="swimlane;startSize=0;fontColor=#FFFFFF;" parent="f_O2-wFuMA8MrVj1vAAy-4" vertex="1">
                    <mxGeometry x="80" y="60" width="250" height="110" as="geometry"/>
                </mxCell>
                <mxCell id="f_O2-wFuMA8MrVj1vAAy-9" value="" style="rounded=1;whiteSpace=wrap;html=1;fontColor=#ffffff;fillColor=#6a00ff;strokeColor=#3700CC;" parent="f_O2-wFuMA8MrVj1vAAy-7" vertex="1">
                    <mxGeometry x="100" y="10" width="120" height="40" as="geometry"/>
                </mxCell>
                <mxCell id="f_O2-wFuMA8MrVj1vAAy-10" value="" style="rounded=1;whiteSpace=wrap;html=1;fontColor=#ffffff;fillColor=#60a917;strokeColor=#2D7600;" parent="f_O2-wFuMA8MrVj1vAAy-7" vertex="1">
                    <mxGeometry x="100" y="60" width="120" height="40" as="geometry"/>
                </mxCell>
                <mxCell id="f_O2-wFuMA8MrVj1vAAy-13" value="UserItem" style="text;html=1;strokeColor=none;fillColor=none;align=center;verticalAlign=middle;whiteSpace=wrap;rounded=0;fontColor=#FFFFFF;" parent="f_O2-wFuMA8MrVj1vAAy-7" vertex="1">
                    <mxGeometry x="110" y="15" width="60" height="30" as="geometry"/>
                </mxCell>
                <mxCell id="f_O2-wFuMA8MrVj1vAAy-20" value="UserList" style="text;html=1;strokeColor=none;fillColor=none;align=center;verticalAlign=middle;whiteSpace=wrap;rounded=0;fontColor=#FFFFFF;" parent="f_O2-wFuMA8MrVj1vAAy-7" vertex="1">
                    <mxGeometry x="110" y="70" width="60" height="30" as="geometry"/>
                </mxCell>
                <mxCell id="f_O2-wFuMA8MrVj1vAAy-35" value="Components" style="text;html=1;strokeColor=none;fillColor=none;align=center;verticalAlign=middle;whiteSpace=wrap;rounded=0;fontColor=#FFFFFF;" parent="f_O2-wFuMA8MrVj1vAAy-7" vertex="1">
                    <mxGeometry x="10" y="40" width="70" height="30" as="geometry"/>
                </mxCell>
                <mxCell id="f_O2-wFuMA8MrVj1vAAy-30" value="" style="swimlane;startSize=0;fontColor=#ffffff;fillColor=#76608a;strokeColor=#432D57;" parent="f_O2-wFuMA8MrVj1vAAy-4" vertex="1">
                    <mxGeometry x="80" y="190" width="250" height="110" as="geometry"/>
                </mxCell>
                <mxCell id="f_O2-wFuMA8MrVj1vAAy-31" value="" style="rounded=1;whiteSpace=wrap;html=1;fontColor=#ffffff;fillColor=#76608a;strokeColor=#432D57;" parent="f_O2-wFuMA8MrVj1vAAy-30" vertex="1">
                    <mxGeometry x="90" y="10" width="120" height="40" as="geometry"/>
                </mxCell>
                <mxCell id="f_O2-wFuMA8MrVj1vAAy-32" value="" style="rounded=1;whiteSpace=wrap;html=1;fontColor=#ffffff;fillColor=#d80073;strokeColor=#A50040;" parent="f_O2-wFuMA8MrVj1vAAy-30" vertex="1">
                    <mxGeometry x="90" y="60" width="120" height="40" as="geometry"/>
                </mxCell>
                <mxCell id="f_O2-wFuMA8MrVj1vAAy-33" value="Add/Edit User" style="text;html=1;strokeColor=none;fillColor=none;align=center;verticalAlign=middle;whiteSpace=wrap;rounded=0;fontColor=#FFFFFF;" parent="f_O2-wFuMA8MrVj1vAAy-30" vertex="1">
                    <mxGeometry x="110" y="15" width="80" height="30" as="geometry"/>
                </mxCell>
                <mxCell id="f_O2-wFuMA8MrVj1vAAy-34" value="UserList" style="text;html=1;strokeColor=none;fillColor=none;align=center;verticalAlign=middle;whiteSpace=wrap;rounded=0;fontColor=#FFFFFF;" parent="f_O2-wFuMA8MrVj1vAAy-30" vertex="1">
                    <mxGeometry x="110" y="65" width="60" height="30" as="geometry"/>
                </mxCell>
                <mxCell id="f_O2-wFuMA8MrVj1vAAy-41" value="Pages" style="text;html=1;strokeColor=none;fillColor=none;align=center;verticalAlign=middle;whiteSpace=wrap;rounded=0;fontColor=#FFFFFF;" parent="f_O2-wFuMA8MrVj1vAAy-30" vertex="1">
                    <mxGeometry x="20" y="30" width="60" height="30" as="geometry"/>
                </mxCell>
                <mxCell id="f_O2-wFuMA8MrVj1vAAy-42" value="" style="swimlane;startSize=0;fontColor=#FFFFFF;" parent="1" vertex="1">
                    <mxGeometry x="560" y="70" width="400" height="340" as="geometry"/>
                </mxCell>
                <mxCell id="f_O2-wFuMA8MrVj1vAAy-43" value="&lt;h1&gt;Todo&lt;/h1&gt;" style="text;html=1;strokeColor=none;fillColor=none;spacing=5;spacingTop=-20;whiteSpace=wrap;overflow=hidden;rounded=0;fontColor=#FFFFFF;" parent="f_O2-wFuMA8MrVj1vAAy-42" vertex="1">
                    <mxGeometry x="20" width="90" height="50" as="geometry"/>
                </mxCell>
                <mxCell id="f_O2-wFuMA8MrVj1vAAy-44" value="" style="swimlane;startSize=0;fontColor=#FFFFFF;" parent="f_O2-wFuMA8MrVj1vAAy-42" vertex="1">
                    <mxGeometry x="80" y="60" width="250" height="110" as="geometry"/>
                </mxCell>
                <mxCell id="f_O2-wFuMA8MrVj1vAAy-45" value="" style="rounded=1;whiteSpace=wrap;html=1;fontColor=#ffffff;fillColor=#6a00ff;strokeColor=#3700CC;" parent="f_O2-wFuMA8MrVj1vAAy-44" vertex="1">
                    <mxGeometry x="100" y="10" width="120" height="40" as="geometry"/>
                </mxCell>
                <mxCell id="f_O2-wFuMA8MrVj1vAAy-46" value="" style="rounded=1;whiteSpace=wrap;html=1;fontColor=#ffffff;fillColor=#60a917;strokeColor=#2D7600;" parent="f_O2-wFuMA8MrVj1vAAy-44" vertex="1">
                    <mxGeometry x="100" y="60" width="120" height="40" as="geometry"/>
                </mxCell>
                <mxCell id="f_O2-wFuMA8MrVj1vAAy-47" value="TodoItem" style="text;html=1;strokeColor=none;fillColor=none;align=center;verticalAlign=middle;whiteSpace=wrap;rounded=0;fontColor=#FFFFFF;" parent="f_O2-wFuMA8MrVj1vAAy-44" vertex="1">
                    <mxGeometry x="110" y="15" width="60" height="30" as="geometry"/>
                </mxCell>
                <mxCell id="f_O2-wFuMA8MrVj1vAAy-48" value="TodoList" style="text;html=1;strokeColor=none;fillColor=none;align=center;verticalAlign=middle;whiteSpace=wrap;rounded=0;fontColor=#FFFFFF;" parent="f_O2-wFuMA8MrVj1vAAy-44" vertex="1">
                    <mxGeometry x="120" y="65" width="60" height="30" as="geometry"/>
                </mxCell>
                <mxCell id="f_O2-wFuMA8MrVj1vAAy-49" value="Components" style="text;html=1;strokeColor=none;fillColor=none;align=center;verticalAlign=middle;whiteSpace=wrap;rounded=0;fontColor=#FFFFFF;" parent="f_O2-wFuMA8MrVj1vAAy-44" vertex="1">
                    <mxGeometry x="10" y="40" width="70" height="30" as="geometry"/>
                </mxCell>
                <mxCell id="f_O2-wFuMA8MrVj1vAAy-50" value="" style="swimlane;startSize=0;fontColor=#ffffff;fillColor=#008a00;strokeColor=#005700;" parent="f_O2-wFuMA8MrVj1vAAy-42" vertex="1">
                    <mxGeometry x="80" y="190" width="250" height="110" as="geometry"/>
                </mxCell>
                <mxCell id="f_O2-wFuMA8MrVj1vAAy-51" value="" style="rounded=1;whiteSpace=wrap;html=1;fontColor=#ffffff;fillColor=#76608a;strokeColor=#432D57;" parent="f_O2-wFuMA8MrVj1vAAy-50" vertex="1">
                    <mxGeometry x="90" y="10" width="120" height="40" as="geometry"/>
                </mxCell>
                <mxCell id="f_O2-wFuMA8MrVj1vAAy-52" value="" style="rounded=1;whiteSpace=wrap;html=1;fontColor=#ffffff;fillColor=#d80073;strokeColor=#A50040;" parent="f_O2-wFuMA8MrVj1vAAy-50" vertex="1">
                    <mxGeometry x="90" y="60" width="120" height="40" as="geometry"/>
                </mxCell>
                <mxCell id="f_O2-wFuMA8MrVj1vAAy-53" value="Add/Edit Todo" style="text;html=1;strokeColor=none;fillColor=none;align=center;verticalAlign=middle;whiteSpace=wrap;rounded=0;fontColor=#FFFFFF;" parent="f_O2-wFuMA8MrVj1vAAy-50" vertex="1">
                    <mxGeometry x="110" y="15" width="80" height="30" as="geometry"/>
                </mxCell>
                <mxCell id="f_O2-wFuMA8MrVj1vAAy-54" value="UserTodoList" style="text;html=1;strokeColor=none;fillColor=none;align=center;verticalAlign=middle;whiteSpace=wrap;rounded=0;fontColor=#FFFFFF;" parent="f_O2-wFuMA8MrVj1vAAy-50" vertex="1">
                    <mxGeometry x="110" y="65" width="60" height="30" as="geometry"/>
                </mxCell>
                <mxCell id="f_O2-wFuMA8MrVj1vAAy-55" value="Pages" style="text;html=1;strokeColor=none;fillColor=none;align=center;verticalAlign=middle;whiteSpace=wrap;rounded=0;fontColor=#FFFFFF;" parent="f_O2-wFuMA8MrVj1vAAy-50" vertex="1">
                    <mxGeometry x="20" y="30" width="60" height="30" as="geometry"/>
                </mxCell>
                <mxCell id="tjXx-tjNgl7Nfv5BYs05-1" value="" style="swimlane;startSize=0;fontColor=#FFFFFF;" parent="1" vertex="1">
                    <mxGeometry x="60" y="340" width="400" height="470" as="geometry"/>
                </mxCell>
                <mxCell id="tjXx-tjNgl7Nfv5BYs05-2" value="&lt;h1&gt;Shared Components&lt;/h1&gt;" style="text;html=1;strokeColor=none;fillColor=none;spacing=5;spacingTop=-20;whiteSpace=wrap;overflow=hidden;rounded=0;fontColor=#FFFFFF;" parent="tjXx-tjNgl7Nfv5BYs05-1" vertex="1">
                    <mxGeometry x="20" width="250" height="50" as="geometry"/>
                </mxCell>
                <mxCell id="tjXx-tjNgl7Nfv5BYs05-3" value="" style="swimlane;startSize=0;fontColor=#FFFFFF;" parent="tjXx-tjNgl7Nfv5BYs05-1" vertex="1">
                    <mxGeometry x="80" y="60" width="250" height="110" as="geometry"/>
                </mxCell>
                <mxCell id="tjXx-tjNgl7Nfv5BYs05-4" value="" style="rounded=1;whiteSpace=wrap;html=1;fontColor=#ffffff;fillColor=#6a00ff;strokeColor=#3700CC;" parent="tjXx-tjNgl7Nfv5BYs05-3" vertex="1">
                    <mxGeometry x="100" y="10" width="120" height="40" as="geometry"/>
                </mxCell>
                <mxCell id="tjXx-tjNgl7Nfv5BYs05-5" value="" style="rounded=1;whiteSpace=wrap;html=1;fontColor=#ffffff;fillColor=#60a917;strokeColor=#2D7600;" parent="tjXx-tjNgl7Nfv5BYs05-3" vertex="1">
                    <mxGeometry x="100" y="60" width="120" height="40" as="geometry"/>
                </mxCell>
                <mxCell id="tjXx-tjNgl7Nfv5BYs05-6" value="NavLinks" style="text;html=1;strokeColor=none;fillColor=none;align=center;verticalAlign=middle;whiteSpace=wrap;rounded=0;fontColor=#FFFFFF;" parent="tjXx-tjNgl7Nfv5BYs05-3" vertex="1">
                    <mxGeometry x="110" y="15" width="60" height="30" as="geometry"/>
                </mxCell>
                <mxCell id="tjXx-tjNgl7Nfv5BYs05-7" value="SideDrawer" style="text;html=1;strokeColor=none;fillColor=none;align=center;verticalAlign=middle;whiteSpace=wrap;rounded=0;fontColor=#FFFFFF;" parent="tjXx-tjNgl7Nfv5BYs05-3" vertex="1">
                    <mxGeometry x="110" y="70" width="60" height="30" as="geometry"/>
                </mxCell>
                <mxCell id="tjXx-tjNgl7Nfv5BYs05-8" value="Navigation" style="text;html=1;strokeColor=none;fillColor=none;align=center;verticalAlign=middle;whiteSpace=wrap;rounded=0;fontColor=#FFFFFF;" parent="tjXx-tjNgl7Nfv5BYs05-3" vertex="1">
                    <mxGeometry x="10" y="40" width="70" height="30" as="geometry"/>
                </mxCell>
                <mxCell id="tjXx-tjNgl7Nfv5BYs05-9" value="" style="swimlane;startSize=0;fontColor=#ffffff;fillColor=#008a00;strokeColor=#005700;" parent="tjXx-tjNgl7Nfv5BYs05-1" vertex="1">
                    <mxGeometry x="80" y="190" width="250" height="210" as="geometry"/>
                </mxCell>
                <mxCell id="tjXx-tjNgl7Nfv5BYs05-10" value="" style="rounded=1;whiteSpace=wrap;html=1;fontColor=#ffffff;fillColor=#76608a;strokeColor=#432D57;" parent="tjXx-tjNgl7Nfv5BYs05-9" vertex="1">
                    <mxGeometry x="90" y="10" width="120" height="40" as="geometry"/>
                </mxCell>
                <mxCell id="tjXx-tjNgl7Nfv5BYs05-11" value="" style="rounded=1;whiteSpace=wrap;html=1;fontColor=#ffffff;fillColor=#d80073;strokeColor=#A50040;" parent="tjXx-tjNgl7Nfv5BYs05-9" vertex="1">
                    <mxGeometry x="90" y="60" width="120" height="40" as="geometry"/>
                </mxCell>
                <mxCell id="tjXx-tjNgl7Nfv5BYs05-12" value="Avatar" style="text;html=1;strokeColor=none;fillColor=none;align=center;verticalAlign=middle;whiteSpace=wrap;rounded=0;fontColor=#FFFFFF;" parent="tjXx-tjNgl7Nfv5BYs05-9" vertex="1">
                    <mxGeometry x="110" y="15" width="80" height="30" as="geometry"/>
                </mxCell>
                <mxCell id="tjXx-tjNgl7Nfv5BYs05-13" value="Backdrop" style="text;html=1;strokeColor=none;fillColor=none;align=center;verticalAlign=middle;whiteSpace=wrap;rounded=0;fontColor=#FFFFFF;" parent="tjXx-tjNgl7Nfv5BYs05-9" vertex="1">
                    <mxGeometry x="110" y="65" width="80" height="30" as="geometry"/>
                </mxCell>
                <mxCell id="tjXx-tjNgl7Nfv5BYs05-14" value="UI Components" style="text;html=1;strokeColor=none;fillColor=none;align=center;verticalAlign=middle;whiteSpace=wrap;rounded=0;fontColor=#FFFFFF;" parent="tjXx-tjNgl7Nfv5BYs05-9" vertex="1">
                    <mxGeometry x="20" y="30" width="60" height="30" as="geometry"/>
                </mxCell>
                <mxCell id="tjXx-tjNgl7Nfv5BYs05-27" value="" style="rounded=1;whiteSpace=wrap;html=1;fontColor=#ffffff;fillColor=#d80073;strokeColor=#A50040;" parent="tjXx-tjNgl7Nfv5BYs05-9" vertex="1">
                    <mxGeometry x="90" y="120" width="120" height="40" as="geometry"/>
                </mxCell>
                <mxCell id="tjXx-tjNgl7Nfv5BYs05-28" value="Card" style="text;html=1;strokeColor=none;fillColor=none;align=center;verticalAlign=middle;whiteSpace=wrap;rounded=0;fontColor=#FFFFFF;" parent="tjXx-tjNgl7Nfv5BYs05-9" vertex="1">
                    <mxGeometry x="110" y="130" width="80" height="30" as="geometry"/>
                </mxCell>
            </root>
        </mxGraphModel>
    </diagram>
</mxfile>